<svg width="16" height="16" viewBox="0 0 16 16" fill="none" xmlns="http://www.w3.org/2000/svg">
<path d="M15.04 10.8667L9.92667 2.38669C9.7199 2.06323 9.43503 1.79704 9.09832 1.61265C8.76161 1.42825 8.38389 1.3316 8 1.3316C7.61611 1.3316 7.23839 1.42825 6.90168 1.61265C6.56497 1.79704 6.2801 2.06323 6.07333 2.38669L0.960001 10.8667C0.77937 11.1678 0.681193 11.5111 0.675342 11.8622C0.669491 12.2133 0.756171 12.5597 0.926667 12.8667C1.12379 13.2122 1.40911 13.4992 1.75347 13.6983C2.09783 13.8974 2.48888 14.0015 2.88667 14H13.1133C13.5085 14.0042 13.8978 13.9041 14.2419 13.7098C14.586 13.5155 14.8728 13.2339 15.0733 12.8934C15.2488 12.5832 15.3383 12.2318 15.3324 11.8755C15.3266 11.5192 15.2256 11.1709 15.04 10.8667ZM8 11.3334C7.86815 11.3334 7.73925 11.2943 7.62962 11.221C7.51999 11.1477 7.43454 11.0436 7.38408 10.9218C7.33362 10.8 7.32042 10.6659 7.34614 10.5366C7.37187 10.4073 7.43536 10.2885 7.5286 10.1953C7.62183 10.102 7.74062 10.0386 7.86994 10.0128C7.99926 9.98711 8.13331 10.0003 8.25512 10.0508C8.37694 10.1012 8.48106 10.1867 8.55431 10.2963C8.62757 10.4059 8.66667 10.5348 8.66667 10.6667C8.66667 10.8435 8.59643 11.0131 8.4714 11.1381C8.34638 11.2631 8.17681 11.3334 8 11.3334ZM8.66667 8.66669C8.66667 8.8435 8.59643 9.01307 8.4714 9.13809C8.34638 9.26312 8.17681 9.33335 8 9.33335C7.82319 9.33335 7.65362 9.26312 7.5286 9.13809C7.40357 9.01307 7.33333 8.8435 7.33333 8.66669V6.00002C7.33333 5.82321 7.40357 5.65364 7.5286 5.52862C7.65362 5.40359 7.82319 5.33335 8 5.33335C8.17681 5.33335 8.34638 5.40359 8.4714 5.52862C8.59643 5.65364 8.66667 5.82321 8.66667 6.00002V8.66669Z" fill="#FBBF24"/>
</svg>
