<svg width="16" height="16" viewBox="0 0 16 16" fill="none" xmlns="http://www.w3.org/2000/svg">
<path d="M8 1.33331C6.68146 1.33331 5.39252 1.72431 4.2962 2.45685C3.19987 3.18939 2.34539 4.23058 1.8408 5.44876C1.33622 6.66693 1.20419 8.00738 1.46143 9.30058C1.71866 10.5938 2.3536 11.7817 3.28595 12.714C4.2183 13.6464 5.40619 14.2813 6.6994 14.5385C7.9926 14.7958 9.33305 14.6638 10.5512 14.1592C11.7694 13.6546 12.8106 12.8001 13.5431 11.7038C14.2757 10.6075 14.6667 9.31852 14.6667 7.99998C14.6667 7.1245 14.4942 6.25759 14.1592 5.44876C13.8242 4.63992 13.3331 3.90499 12.714 3.28593C12.095 2.66688 11.3601 2.17581 10.5512 1.84078C9.74238 1.50575 8.87548 1.33331 8 1.33331ZM10.8667 6.40665L7.82 10.4066C7.75789 10.4873 7.67813 10.5527 7.58684 10.5978C7.49555 10.6428 7.39514 10.6664 7.29333 10.6666C7.19207 10.6672 7.09201 10.6447 7.00076 10.6008C6.9095 10.5569 6.82945 10.4928 6.76666 10.4133L5.14 8.33998C5.08616 8.27082 5.04646 8.19173 5.02319 8.10722C4.99991 8.02272 4.99351 7.93446 5.00434 7.84748C5.01517 7.76051 5.04303 7.67651 5.08633 7.6003C5.12962 7.52409 5.1875 7.45715 5.25666 7.40331C5.39635 7.29457 5.5735 7.24578 5.74916 7.26766C5.83614 7.27849 5.92013 7.30635 5.99634 7.34964C6.07255 7.39294 6.13949 7.45082 6.19333 7.51998L7.28 8.90665L9.8 5.57331C9.8534 5.50327 9.92008 5.44444 9.99622 5.40017C10.0724 5.3559 10.1565 5.32706 10.2438 5.3153C10.3311 5.30354 10.4198 5.30908 10.5049 5.33162C10.5901 5.35416 10.67 5.39324 10.74 5.44665C10.81 5.50005 10.8689 5.56673 10.9131 5.64287C10.9574 5.71901 10.9862 5.80313 10.998 5.89041C11.0098 5.9777 11.0042 6.06645 10.9817 6.15159C10.9592 6.23674 10.9201 6.31661 10.8667 6.38665V6.40665Z" fill="#6EE7B7"/>
</svg>
