<svg width="16" height="16" viewBox="0 0 16 16" fill="none" xmlns="http://www.w3.org/2000/svg">
<path d="M8 14C7.91226 14.0005 7.82529 13.9837 7.74406 13.9505C7.66284 13.9174 7.58896 13.8685 7.52667 13.8067L2.34667 8.62001C1.69691 7.96346 1.33244 7.07706 1.33244 6.15334C1.33244 5.22963 1.69691 4.34323 2.34667 3.68668C3.00151 3.03369 3.88856 2.66699 4.81333 2.66699C5.73811 2.66699 6.62516 3.03369 7.28 3.68668L8 4.40668L8.72 3.68668C9.37484 3.03369 10.2619 2.66699 11.1867 2.66699C12.1114 2.66699 12.9985 3.03369 13.6533 3.68668C14.3031 4.34323 14.6676 5.22963 14.6676 6.15334C14.6676 7.07706 14.3031 7.96346 13.6533 8.62001L8.47333 13.8067C8.41104 13.8685 8.33716 13.9174 8.25594 13.9505C8.17471 13.9837 8.08774 14.0005 8 14Z" fill="#EF4444"/>
</svg>
